FILE "HauntedGraveyard.iso" BINARY
  TRACK 01 MODE2/2352
    INDEX 01 00:00:00
  TRACK 02 AUDIO
    INDEX 00 00:21:70
    INDEX 01 00:23:70
  TRACK 03 AUDIO
    INDEX 00 02:47:21
    INDEX 01 02:49:21
